<svg id="Layer_1" data-name="Layer 1" xmlns="http://www.w3.org/2000/svg" xmlns:xlink="http://www.w3.org/1999/xlink" viewBox="0 0 72 61.5"><defs><style>.cls-1{fill:#fff;}.cls-2{fill:url(#linear-gradient);}.cls-3{fill:url(#linear-gradient-2);}.cls-4{fill:url(#linear-gradient-3);}.cls-5{fill:url(#linear-gradient-4);}.cls-6{fill:url(#linear-gradient-5);}.cls-7{fill:url(#linear-gradient-6);}</style><linearGradient id="linear-gradient" x1="8.24" y1="13.29" x2="33.77" y2="63.54" gradientUnits="userSpaceOnUse"><stop offset="0" stop-color="#e42213"/><stop offset="0.27" stop-color="#ffd300"/><stop offset="0.37" stop-color="#5fb130"/><stop offset="0.66" stop-color="#3193d1"/><stop offset="0.99" stop-color="#352773"/></linearGradient><linearGradient id="linear-gradient-2" x1="27.03" y1="3.75" x2="52.55" y2="54" xlink:href="#linear-gradient"/><linearGradient id="linear-gradient-3" x1="29.43" y1="2.53" x2="54.95" y2="52.77" xlink:href="#linear-gradient"/><linearGradient id="linear-gradient-4" x1="18.42" y1="8.12" x2="43.94" y2="58.37" xlink:href="#linear-gradient"/><linearGradient id="linear-gradient-5" x1="21.52" y1="6.55" x2="47.04" y2="56.79" xlink:href="#linear-gradient"/><linearGradient id="linear-gradient-6" x1="6.48" y1="14.19" x2="32" y2="64.43" xlink:href="#linear-gradient"/></defs><title>Artboard 2</title><path class="cls-1" d="M57.55,31.42a.38.38,0,0,0-.44.35c-.15.6-.36,1.19-.53,1.79-.12.43,0,.54.43.53s.51,0,.42.51a1.76,1.76,0,0,0,0,.64c0,.23-.07.27-.24.27-1,0-2,0-3-.05a.55.55,0,0,0-.19,0c-.22.07-.28-.06-.28-.23,0-.34.08-.68.05-1,0-.13.09-.18.21-.19s.42.07.59-.11a2.13,2.13,0,0,0,.39-.81c.21-.59.41-1.17.61-1.76s.45-1.39.68-2.08q.26-.79.53-1.58L57.63,25l1.06-3.1c0-.05,0-.1.05-.15.17-.66.23-.71.9-.63a5.72,5.72,0,0,0,.84,0,.3.3,0,0,1,.35.25c.46,1.25.89,2.51,1.36,3.76.21.57.39,1.16.6,1.73s.42,1.17.64,1.75c.39,1,.73,2,1.1,3.06q.34,1,.71,1.9c.17.44.29.53.75.52.23,0,.31.07.29.3a5.47,5.47,0,0,0,0,.81c0,.28-.1.35-.36.35H62.66l-1.16,0c-.18,0-.26-.07-.26-.25s0-.6,0-.91.08-.3.28-.3h.13c.61,0,.66-.1.45-.66s-.42-1.19-.61-1.8c-.06-.19-.16-.22-.33-.22l-1.13,0Zm1.71-6.14a11.82,11.82,0,0,0-.53,1.52c-.32.91-.6,1.83-.91,2.74-.06.18,0,.26.18.27s.64,0,1,0c.57,0,1.14,0,1.71,0,.1,0,.22,0,.15-.19-.41-1.19-.8-2.39-1.22-3.59A1.84,1.84,0,0,0,59.27,25.29Z"/><path class="cls-1" d="M32.22,35.81a8,8,0,0,1-3-.52,6,6,0,0,1-3.33-3.18,8.87,8.87,0,0,1-.74-4,7.19,7.19,0,0,1,1.18-3.9,6.14,6.14,0,0,1,2.2-2,8.31,8.31,0,0,1,3.19-.93,11.7,11.7,0,0,1,3,.08,8.31,8.31,0,0,1,2.2.62c.1,0,.17.09.18.2.1.62.2,1.25.31,1.87.08.42.17.84.28,1.26s.07.38-.27.44a8.5,8.5,0,0,0-1,.23c-.2.07-.24,0-.28-.17-.09-.37-.2-.75-.3-1.12a2.23,2.23,0,0,0-2.27-1.92,4.57,4.57,0,0,0-3.81,1.12,4.64,4.64,0,0,0-1.26,2,7.7,7.7,0,0,0-.32,3.55A5.51,5.51,0,0,0,29.94,33a4,4,0,0,0,3.7.93,4.68,4.68,0,0,0,3.22-2.79c.08-.17.16-.26.36-.15.36.19.72.36,1.09.54.14.07.12.16.07.27a6.53,6.53,0,0,1-6.15,4Z"/><path class="cls-1" d="M46.48,30.67q0,1.57,0,3.14a.41.41,0,0,0,.4.48,3.1,3.1,0,0,0,.74,0c.25,0,.35,0,.37.31.05.9.06.89-.83.89H43.08c-.27,0-.46,0-.39-.37a.21.21,0,0,0,0,0c0-.24-.1-.53.06-.72s.45,0,.68-.06c.42,0,.55-.19.55-.69q0-2.2,0-4.41c0-.56,0-1.12,0-1.68,0-.25-.09-.33-.32-.31h-.29c-.65,0-.65,0-.64-.66s0-.7.7-.7a1.31,1.31,0,0,1,.23,0c.25,0,.33-.08.32-.31a9,9,0,0,1,.11-1.68,3.09,3.09,0,0,1,2.67-2.81,3.43,3.43,0,0,1,2.92.74,1.84,1.84,0,0,1,.6,1.11,1.06,1.06,0,0,1-.56,1.1,1.17,1.17,0,0,1-1.4-.35A2.76,2.76,0,0,1,48,23c-.09-.26-.19-.57-.52-.58a.69.69,0,0,0-.65.5,3.72,3.72,0,0,0-.29,1.35c0,.46,0,.93,0,1.39,0,.22,0,.31.29.3.48,0,1,0,1.46,0,.2,0,.28.07.28.26s0,.58,0,.87-.12.2-.26.2c-.5,0-1,0-1.49,0-.24,0-.29.07-.29.3,0,1,0,2.09,0,3.14Z"/><path class="cls-2" d="M38.93,52.85c-.05-.35-.2-.43-.5-.41h-.16a16.92,16.92,0,0,1-3.45-.21,24.24,24.24,0,0,1-2.73-.6,22.34,22.34,0,0,1-3.1-1.1,21.87,21.87,0,0,1-4.56-2.73,22.92,22.92,0,0,1-3-2.8,22,22,0,0,1-2.95-4.15c-.15-.27-.25-.24-.46-.11l-2.46,1.47-2.19,1.3c-.19.11-.28.25-.11.47s.34.5.51.75c.39.58.82,1.13,1.26,1.68a20.81,20.81,0,0,0,2,2.2A31.9,31.9,0,0,0,19.79,51a25,25,0,0,0,3,1.91A24.15,24.15,0,0,0,28.14,55a26.57,26.57,0,0,0,3.18.65c.64.08,1.28.2,1.92.23a20.65,20.65,0,0,0,2.94,0,29.51,29.51,0,0,0,3.07-.39c.18,0,.21-.13.17-.3C39.24,54.41,39.05,53.63,38.93,52.85Z"/><path class="cls-3" d="M13.9,16.28l4,2.69c.2.13.34.13.47-.1.3-.53.61-1.06,1-1.57a23.84,23.84,0,0,1,3.23-3.8A22.24,22.24,0,0,1,27.34,10c.55-.3,1.17-.48,1.7-.8A9.66,9.66,0,0,1,31,8.38a21.19,21.19,0,0,1,2.61-.72A15.2,15.2,0,0,1,36,7.26a24.44,24.44,0,0,1,7,.41,29,29,0,0,1,3.33,1c.77.29,1.48.66,2.21,1a3.3,3.3,0,0,0,1,.44c.09,0,.18,0,.2-.08s0-.17-.1-.18-.15-.17-.25-.23A23.86,23.86,0,0,0,47,8.14c-.77-.4-1.54-.79-2.33-1.14a26.37,26.37,0,0,0-3.19-1.11,20.94,20.94,0,0,0-2.74-.58A27.19,27.19,0,0,0,35.13,5a25.33,25.33,0,0,0-4.38.35,25,25,0,0,0-4.16,1,24.33,24.33,0,0,0-4.3,1.91A25.54,25.54,0,0,0,19,10.4a26.06,26.06,0,0,0-3,2.81,30.19,30.19,0,0,0-2.18,2.72A.22.22,0,0,0,13.9,16.28Z"/><path class="cls-4" d="M57.49,41.75c-.07,0-.11,0-.15.09A13.57,13.57,0,0,1,56.62,43a24.87,24.87,0,0,1-3.2,3.58,22.78,22.78,0,0,1-5.47,3.68c-.58.28-1.18.51-1.77.76-.19.08-.21.15-.1.33s.34.62.52.93c.33.57.32.55.9.21a25.64,25.64,0,0,0,7.34-6.38,25.31,25.31,0,0,0,2.32-3.56c.13-.23.27-.46.37-.68C57.54,41.81,57.54,41.76,57.49,41.75Z"/><path class="cls-5" d="M43,52.16c0-.11-.11-.2-.27-.17a18.53,18.53,0,0,1-3,.42c-.13,0-.21,0-.17.19q.26,1.25.52,2.5c0,.12.08.2.22.19l.35-.08.9-.24a22.38,22.38,0,0,0,2.2-.7c.12,0,.14-.11.09-.22Z"/><path class="cls-6" d="M45.42,51.55c-.05-.1-.11-.19-.24-.18h0c-.48.12-.94.31-1.42.39-.11,0-.12.1-.07.2.29.57.53,1.17.77,1.77.07.16.15.22.32.14l1.34-.6c.13-.06.19-.13.11-.27Z"/><path class="cls-7" d="M16,41.15l1.74-1a.27.27,0,0,0,.12-.43c-.18-.33-.31-.69-.48-1a15.3,15.3,0,0,0-.61-1.41,1,1,0,0,0-.1-.45c0-.11,0-.3-.2-.32l0-.19a.42.42,0,0,0,0-.13,19.49,19.49,0,0,1-.77-3.58,15.47,15.47,0,0,1-.24-2.47,16.6,16.6,0,0,1,.13-2.56c.11-.58.21-1.16.3-1.74a17.6,17.6,0,0,1,.45-1.91c.18-.63.38-1.26.6-1.87a12.12,12.12,0,0,1,.84-1.91c.11-.2.07-.34-.13-.49-.53-.41-1.12-.72-1.66-1.11-.78-.55-1.56-1.11-2.37-1.62-.25-.16-.36-.09-.47.11-.35.61-.72,1.22-1,1.85a27,27,0,0,0-1.45,3.44,24.42,24.42,0,0,0-1,4,18.21,18.21,0,0,0-.29,2.79,15.05,15.05,0,0,0,.08,2.38c.13.91,0,1.85.19,2.77.1.49.14,1,.25,1.49a21.44,21.44,0,0,0,.61,2.37,13,13,0,0,0,.66,1.75,2,2,0,0,0,.06.22,24.17,24.17,0,0,0,1.23,2.63c.25.47.24.46.69.18C14.08,42.27,15,41.71,16,41.15Zm-.13-7h0s0-.07,0-.08S15.84,34.16,15.84,34.19Z"/></svg>